<svg xmlns="http://www.w3.org/2000/svg"><symbol id="super-domes" viewBox="0 0 256 256"><path d="M70.9 147.2H126v22.73H70.9zm55-19.4V86.4l-29.4 41.4h29.4zm4.1-45.7v45.7h56.6A60.9 60.9 0 0 0 130 82.1zm0 65.1h9.2v22.73H130zm-6.1-64.9C97.7 84 75.8 103 69.4 127.8h21.9z"/><path d="M128 3.3L20 65.6v124.8l108 62.3 108-62.3V65.6zm88.3 143.9h-27.1V172a1.9 1.9 0 0 1-2 2.1H68.8a1.9 1.9 0 0 1-2-2.1v-24.8H39.7a2 2 0 1 1 0-4h15.4v-13.4a1.9 1.9 0 0 1 2-2h8A65 65 0 0 1 127.8 78c.2-.2.4-.2.8 0 30.3.2 55.5 21.5 62.3 49.8h8a1.9 1.9 0 0 1 2 2v13.4h15.4a2 2 0 0 1 0 4z"/><path d="M59.2 131.9h137.6v11.26H59.2zm84.2 15.3h41.8v22.73h-41.8z"/></symbol><symbol id="space-bubbles" viewBox="0 0 256 256"><path d="M97.1 149.3H83.6l-18 21.3 2.8 4.1 34.6-18.2-5.9-7.2zm-25-14.7h112v10.65h-112zm97.9-4.1a51.4 51.4 0 0 0 2.5-15.6 44.4 44.4 0 0 0-88.7 0c0 5.3.4 10.8 2.4 15.6zM86.4 170h27.9l-8.4-10.3L86.4 170zm70.5-20.7l-6.1 7.2 34.8 18.2 2.8-3.9-18-21.5h-13.5z"/><path d="M127 3.3L19 65.6v124.8l108 62.3 108-62.3V65.6zm65.5 168.5l-4.7 6.8a2.1 2.1 0 0 1-2.6.6l-9.9-5.1H78.5l-9.9 5.1a2.2 2.2 0 0 1-2.6-.6l-4.7-6.8a1.8 1.8 0 0 1 .2-2.4l17-20.1h-8.4a1.9 1.9 0 0 1-2.1-2.1v-14.7a1.9 1.9 0 0 1 2.1-2h11.8a59.3 59.3 0 0 1-2.2-15.6 48.6 48.6 0 0 1 48.5-48.3c26.4 0 48.4 21.9 48.4 48.3a52.2 52.2 0 0 1-2.3 15.6h11.9a1.9 1.9 0 0 1 2 2v14.7a1.9 1.9 0 0 1-2 2.1h-10.5l16.8 20.1a1.9 1.9 0 0 1 0 2.4z"/><path d="M139.7 170h27.8l-19.4-10.3-8.4 10.3zm-37.3-20.7l17.2 20.7h14.8l17.2-20.7h-49.2z"/></symbol><symbol id="mecha-stilts" viewBox="0 0 256 256"><path d="M96.9 157.1h20.5V170H96.9zm24.5 0h13.1V170h-13.1zm17.2 0h20.5V170h-20.5zM128 71.7c-24 0-44 14.5-45.1 40.9h90.2C172 86.2 152 71.7 128 71.7zm-48.3 85.4h13.1V170H79.7zM67.4 153h121.2v-36.3H67.4zm59.6-13.9h49.9a2.2 2.2 0 0 1 2.1 2 2.3 2.3 0 0 1-2.1 2.1H127a2.3 2.3 0 0 1-2.1-2.1 2.2 2.2 0 0 1 2.1-2z"/><path d="M128 3.3L20 65.6v124.8l108 62.3 108-62.3V65.6zM192.7 155a1.9 1.9 0 0 1-2 2.1h-10.3V170h10.3a2.1 2.1 0 0 1 0 4.1H65.3a2.1 2.1 0 0 1 0-4.1h10.3v-12.9H65.3a1.9 1.9 0 0 1-2-2.1v-40.3a2 2 0 0 1 2-2.1h13.5c1.1-29 22.8-45 49.2-45s48.1 16 49.2 45h13.5a2 2 0 0 1 2 2.1z"/><path d="M163.2 157.1h13.1V170h-13.1z"/></symbol></svg>