<svg xmlns="http://www.w3.org/2000/svg"><symbol id="mecha-stilts" viewBox="0 0 256 256"><path d="M128 2.1l109 63v125.8l-109 63-109-63V65.1l109-63z"/><path fill="#fff" d="M64.7 174.5a2.1 2.1 0 0 1 0-4.1h10.4v-13.1H64.7a1.9 1.9 0 0 1-2-2v-40.7a1.9 1.9 0 0 1 2-2.1h13.7C79.4 83.1 101.3 67 128 67s48.6 16.1 49.6 45.5h13.6a1.9 1.9 0 0 1 2.1 2.1v40.7a1.9 1.9 0 0 1-2.1 2h-10.3v13.1h10.3a2.1 2.1 0 1 1 0 4.1zm2.1-57.9v36.6h122.4v-36.6zm12.4 40.7v13.1h13.2v-13.1zm3.3-44.8h91c-1.1-26.7-21.3-41.3-45.5-41.3s-44.4 14.6-45.5 41.3zm14.1 44.8v13.1h20.6v-13.1zm24.8 0v13.1h13.2v-13.1zm56-14H127a2.1 2.1 0 1 1 0-4.1h50.4a2.1 2.1 0 1 1 0 4.1zm-38.7 14v13.1h20.7v-13.1zm24.8 0v13.1h13.3v-13.1z"/></symbol><symbol id="space-bubbles" viewBox="0 0 256 256"><path d="M127 2.1l109 63v125.8l-109 63-109-63V65.1l109-63z"/><path fill="#fff" d="M65.4 179.1l-4.8-6.9a2 2 0 0 1 .3-2.4L78 149.5h-8.5a1.9 1.9 0 0 1-2-2.1v-14.9a1.9 1.9 0 0 1 2-2h12a60.2 60.2 0 0 1-2.3-15.7 48.9 48.9 0 0 1 97.8 0 49.8 49.8 0 0 1-2.3 15.7h12a1.9 1.9 0 0 1 2.1 2v14.9a1.9 1.9 0 0 1-2.1 2.1h-10.5l16.9 20.3a1.8 1.8 0 0 1 0 2.4l-4.7 6.9a2.3 2.3 0 0 1-2.7.6l-9.9-5.2H78l-9.9 5.2a2.3 2.3 0 0 1-2.7-.6zm31.4-29.6H83.2L65 171l2.9 4.1 34.9-18.4zm-25.2-14.9v10.8h113.1v-10.8zm14.3-4.1h84.5a49.1 49.1 0 0 0 2.5-15.7 44.8 44.8 0 0 0-89.5 0c0 5.3.4 10.9 2.5 15.7zm19.8 29.5l-19.6 10.4h28.1zm-3.5-10.5l17.4 20.9h14.8l17.4-20.9zm46.1 10.5l-8.5 10.4h28.1zm22.5-10.5h-13.6l-6.2 7.2 35.1 18.4 2.9-3.9z"/></symbol><symbol id="super-domes" viewBox="0 0 256 256"><path d="M128 2.1l109 63v125.8l-109 63-109-63V65.1l109-63z"/><path fill="#fff" d="M68.3 174.5a1.9 1.9 0 0 1-2.1-2.1v-25H38.9a2.1 2.1 0 1 1 0-4.1h15.5v-13.4a1.9 1.9 0 0 1 2.1-2.1h8a65.7 65.7 0 0 1 63.3-50.2c.2-.2.4-.2.8 0 30.6.2 56 21.7 62.9 50.2h8a1.9 1.9 0 0 1 2.1 2.1v13.4h15.5a2.1 2.1 0 1 1 0 4.1h-27.3v25a1.9 1.9 0 0 1-2.1 2.1zm-9.8-42.6v11.4h139v-11.4zm65.4-50c-26.5 1.7-48.6 20.9-55 45.9H91zm-53.6 65.5v23h55.6v-23zM125.9 86l-29.7 41.8h29.7zm4.2-4.3v46.1h57a61.4 61.4 0 0 0-57-46.1zm0 65.7v23h9.3v-23zm13.4 0v23h42.2v-23z"/></symbol></svg>